<?xml version="1.0" standalone="no"?>
<!DOCTYPE svg PUBLIC "-//W3C//DTD SVG 20010904//EN"
 "http://www.w3.org/TR/2001/REC-SVG-20010904/DTD/svg10.dtd">
<svg version="1.0" xmlns="http://www.w3.org/2000/svg"
 width="520.000000pt" height="520.000000pt" viewBox="0 0 520.000000 520.000000"
 preserveAspectRatio="xMidYMid meet">
<metadata>
Created by potrace 1.14, written by Peter Selinger 2001-2017
</metadata>
<g transform="translate(0.000000,520.000000) scale(0.100000,-0.100000)"
fill="#000000" stroke="none">
<path d="M2790 4100 l0 -500 605 0 605 0 0 95 0 95 -500 0 -500 0 0 405 0 405
-105 0 -105 0 0 -500z"/>
<path d="M1000 3895 l0 -105 600 0 600 0 0 -395 0 -395 105 0 105 0 0 500 0
500 -705 0 -705 0 0 -105z"/>
<path d="M1600 2700 l0 -500 405 0 405 0 0 105 0 105 -310 0 -310 0 0 295 0
295 105 0 105 0 0 100 0 100 -200 0 -200 0 0 -500z"/>
<path d="M2790 2895 l0 -105 310 0 310 0 0 -295 0 -295 -105 0 -105 0 0 -100
0 -100 200 0 200 0 0 500 0 500 -405 0 -405 0 0 -105z"/>
<path d="M2790 1700 l0 -500 705 0 705 0 0 105 0 105 -600 0 -600 0 0 395 0
395 -105 0 -105 0 0 -500z"/>
<path d="M1200 1505 l0 -95 500 0 500 0 0 -405 0 -405 105 0 105 0 0 500 0
500 -605 0 -605 0 0 -95z"/>
</g>
</svg>
